<svg xmlns="http://www.w3.org/2000/svg" width="270" height="270" viewBox="0 0 270 270"><defs><clipPath id="7znka"><path fill="#fff" d="M0 0h270v270H0z"/></clipPath><mask id="7znkc" width="2.01" height="2.01" x="-1" y="-1"><path fill="#fff" d="M110.8 61.8h48.4v48.4h-48.4z"/><path d="M135 62c13.255 0 24 10.745 24 24s-10.745 24-24 24-24-10.745-24-24 10.745-24 24-24z"/></mask><filter id="7znkb" width="78.2" height="80.2" x="95.9" y="46.9" filterUnits="userSpaceOnUse"><feOffset dy="2" in="SourceGraphic" result="FeOffset1073Out"/><feGaussianBlur in="FeOffset1073Out" result="FeGaussianBlur1074Out" stdDeviation="1.9600000000000002 1.9600000000000002"/></filter></defs><g><g><g opacity=".9"><path fill="#fff" d="M0 0h270v270H0z"/><path fill="none" stroke="#9c9c9c" stroke-miterlimit="20" stroke-width="2" d="M0 0v0h270v270H0v0z" clip-path="url(&quot;#7znka&quot;)"/></g><g opacity="-1"><g><text dominant-baseline="text-before-edge" style="line-height:22px" fill="#6c6c6c" font-family="'Montserrat','Montserrat-Light'" font-size="14" font-style="none" font-weight="lighter" transform="translate(32 169)"><tspan style="font-kerning:normal">Seat and back with upholstery made of cold cure foam </tspan><tspan style="font-kerning:normal">. Steel frame, available in matt powder-coated black </tspan><tspan style="font-kerning:normal"> or highly polished chrome.</tspan></text></g></g><g opacity="-1"><g><text dominant-baseline="text-before-edge" style="line-height:30px" fill="#212121" font-family="'Montserrat','Montserrat-Bold'" font-size="22" font-style="none" font-weight="700" transform="translate(63 129)"><tspan style="font-kerning:normal">Fishnet Chair</tspan></text></g></g><g opacity="-1"><g><g filter="url(#7znkb)"><path fill="none" stroke="#212121" stroke-opacity=".35" stroke-width=".4" d="M135 62c13.255 0 24 10.745 24 24s-10.745 24-24 24-24-10.745-24-24 10.745-24 24-24z" mask="url(&quot;#7znkc&quot;)"/><path fill="#212121" fill-opacity=".35" d="M135 62c13.255 0 24 10.745 24 24s-10.745 24-24 24-24-10.745-24-24 10.745-24 24-24z"/></g><path fill="#fff" d="M135 62c13.255 0 24 10.745 24 24s-10.745 24-24 24-24-10.745-24-24 10.745-24 24-24z"/></g><g><path fill="#6c6c6c" d="M131.294 96l9.68-10-9.68-10-2.307 2.344L136.4 86l-7.412 7.656z"/><path fill="#212121" d="M131.294 96l9.68-10-9.68-10-2.307 2.344L136.4 86l-7.412 7.656z"/></g></g></g></g></svg>